<svg width="579" height="118" viewBox="0 0 579 118" fill="none" xmlns="http://www.w3.org/2000/svg">
<path d="M177.47 90.83C177.47 91.6967 175.867 92.13 172.66 92.13C169.887 92.13 165.857 92.0867 160.57 92C156.67 91.9133 153.983 91.9133 152.51 92L145.23 92.26L139.38 92.39C137.473 92.39 136.52 92 136.52 91.22C136.52 90.6133 136.737 90.2667 137.17 90.18C137.69 90.0933 139.25 90.0067 141.85 89.92C143.237 89.92 143.93 89.4867 143.93 88.62C143.93 88.2733 141.547 84.7633 136.78 78.09L117.67 51.31C116.543 50.1833 115.72 49.2733 115.2 48.58V81.6C115.2 85.5 115.503 87.84 116.11 88.62C116.803 89.3133 119.013 89.7467 122.74 89.92C124.907 90.0067 125.99 90.44 125.99 91.22C125.99 92 125.21 92.39 123.65 92.39L115.46 92.26C110 92.1733 104.41 92.13 98.69 92.13C97.8233 92.13 96.48 92.1733 94.66 92.26C92.9267 92.3467 91.0633 92.39 89.07 92.39H87.38C85.9933 92.39 85.3 92 85.3 91.22C85.3 90.44 86.73 90.0067 89.59 89.92C92.5367 89.8333 94.3133 89.4433 94.92 88.75C95.6133 88.0567 95.96 86.15 95.96 83.03V8.02C95.96 6.80666 95.6567 5.98333 95.05 5.55C94.1833 5.03 92.32 4.77 89.46 4.77C86.9467 4.77 85.69 4.38 85.69 3.6C85.69 2.90666 86.2967 2.56 87.51 2.56L103.24 2.81999C103.413 2.81999 103.933 2.81999 104.8 2.81999C105.753 2.73333 106.62 2.69 107.4 2.69L115.46 2.56H120.79C121.743 2.47333 122.783 2.43 123.91 2.43C124.95 2.43 125.47 2.82 125.47 3.6C125.47 4.20666 124.43 4.55333 122.35 4.63999C118.883 4.81333 116.803 5.16 116.11 5.68C115.503 6.11333 115.2 7.63 115.2 10.23V44.55C117.54 42.6433 125.427 34.1067 138.86 18.94C144.84 12.18 147.83 7.89 147.83 6.07C147.83 5.46333 147.44 5.11666 146.66 5.03C145.88 4.85667 143.67 4.77 140.03 4.77C138.817 4.77 138.21 4.38 138.21 3.6C138.21 2.73333 139.25 2.34333 141.33 2.43L147.05 2.56C147.223 2.56 147.613 2.56 148.22 2.56C149 2.47333 149.693 2.43 150.3 2.43H163.69C164.903 2.43 165.51 2.82 165.51 3.6C165.51 4.46666 164.817 4.9 163.43 4.9C160.223 4.9 158.013 5.11666 156.8 5.55C155.673 5.98333 154.287 7.02333 152.64 8.67C144.58 17.0767 136.173 26.3933 127.42 36.62C128.893 38.7 133.053 44.1167 139.9 52.87C144.667 58.85 151.47 67.56 160.31 79C164.21 84.2 166.767 87.32 167.98 88.36C169.193 89.3133 170.97 89.79 173.31 89.79C176.083 89.79 177.47 90.1367 177.47 90.83Z" fill="black"/>
<path d="M0.0199964 86.93C0.0199964 91.7833 3.18333 94.21 9.51 94.21C17.4833 94.21 23.8533 91.6967 28.62 86.67C32.3467 82.77 34.47 78.61 34.99 74.19L36.29 63.53C37.1567 56.77 38.76 52.0467 41.1 49.36C43.3533 46.6733 47.0367 45.3733 52.15 45.46V74.97C52.15 81.8167 52.1067 85.5 52.02 86.02C52.02 87.4933 51.4133 88.5333 50.2 89.14C48.9867 89.66 46.69 89.92 43.31 89.92C41.23 89.92 40.19 90.31 40.19 91.09C40.19 91.7833 40.71 92.13 41.75 92.13L54.36 92C54.36 92 55.0533 92 56.44 92C58 92.0867 59.4733 92.13 60.86 92.13H70.22C71.0867 92.13 72.0833 92.0867 73.21 92C74.1633 92 74.77 92 75.03 92L81.01 92.13C82.2233 92.13 82.83 91.7833 82.83 91.09C82.83 90.31 81.0533 89.8333 77.5 89.66C74.5533 89.4867 72.82 88.7933 72.3 87.58C72.04 86.9733 71.91 85.1533 71.91 82.12V15.17C71.91 10.6633 71.9967 8.02 72.17 7.24C72.3433 6.37333 72.9067 5.72333 73.86 5.28999C75.0733 4.76999 77.0233 4.51 79.71 4.51C81.6167 4.51 82.57 4.11999 82.57 3.33999C82.57 2.73333 82.18 2.38666 81.4 2.29999C80.62 2.12666 78.54 2.04 75.16 2.04C75.16 2.04 74.38 2.04 72.82 2.04C71.26 2.12666 69.7433 2.16999 68.27 2.16999H63.98C63.8933 2.16999 62.9833 2.12666 61.25 2.04C59.6033 2.04 58.0433 2.04 56.57 2.04H49.03C36.8967 2.04 28.62 2.99333 24.2 4.9C20.7333 6.37333 17.96 8.62666 15.88 11.66C13.8 14.6933 12.76 18.03 12.76 21.67C12.76 29.99 17.0933 36.1433 25.76 40.13C29.5733 41.8633 35.2067 43.1633 42.66 44.03L42.79 44.81C33.3433 45.4167 26.4967 47.93 22.25 52.35C18.0033 56.6833 15.4467 63.7467 14.58 73.54C13.8867 81.34 12.8033 86.2367 11.33 88.23C9.85666 90.1367 8.34 91.09 6.77999 91.09C5.48 91.09 4.83 90.7433 4.83 90.05C4.83 89.7033 5.35 89.2267 6.39 88.62C7.34333 88.0133 7.82 87.1467 7.82 86.02C7.82 83.68 6.52 82.51 3.91999 82.51C1.32 82.51 0.0199964 83.9833 0.0199964 86.93ZM32.91 21.28C32.91 10.1 37.33 4.51 46.17 4.51C49.03 4.51 50.8067 5.46333 51.5 7.37C51.9333 8.58333 52.15 13.3067 52.15 21.54V43.12C45.39 43.2067 40.4933 41.5167 37.46 38.05C34.4267 34.5833 32.91 28.9933 32.91 21.28Z" fill="black"/>
<path d="M227.14 43.46C227.14 43.86 226.4 44.06 224.92 44.06C223.64 44.06 221.78 44.04 219.34 44C217.54 43.96 216.3 43.96 215.62 44L212.26 44.12L209.56 44.18C208.68 44.18 208.24 44 208.24 43.64C208.24 43.36 208.34 43.2 208.54 43.16C208.78 43.12 209.5 43.08 210.7 43.04C211.34 43.04 211.66 42.84 211.66 42.44C211.66 42.28 210.56 40.66 208.36 37.58L199.54 25.22C199.02 24.7 198.64 24.28 198.4 23.96V39.2C198.4 41 198.54 42.08 198.82 42.44C199.14 42.76 200.16 42.96 201.88 43.04C202.88 43.08 203.38 43.28 203.38 43.64C203.38 44 203.02 44.18 202.3 44.18L198.52 44.12C196 44.08 193.42 44.06 190.78 44.06C190.38 44.06 189.76 44.08 188.92 44.12C188.12 44.16 187.26 44.18 186.34 44.18H185.56C184.92 44.18 184.6 44 184.6 43.64C184.6 43.28 185.26 43.08 186.58 43.04C187.94 43 188.76 42.82 189.04 42.5C189.36 42.18 189.52 41.3 189.52 39.86V5.24C189.52 4.68 189.38 4.3 189.1 4.1C188.7 3.86 187.84 3.74 186.52 3.74C185.36 3.74 184.78 3.56 184.78 3.2C184.78 2.88 185.06 2.72 185.62 2.72L192.88 2.84C192.96 2.84 193.2 2.84 193.6 2.84C194.04 2.8 194.44 2.78 194.8 2.78L198.52 2.72H200.98C201.42 2.68 201.9 2.66 202.42 2.66C202.9 2.66 203.14 2.84 203.14 3.2C203.14 3.48 202.66 3.64 201.7 3.68C200.1 3.76 199.14 3.92 198.82 4.16C198.54 4.36 198.4 5.06 198.4 6.26V22.1C199.48 21.22 203.12 17.28 209.32 10.28C212.08 7.16 213.46 5.18 213.46 4.34C213.46 4.06 213.28 3.9 212.92 3.86C212.56 3.78 211.54 3.74 209.86 3.74C209.3 3.74 209.02 3.56 209.02 3.2C209.02 2.8 209.5 2.62 210.46 2.66L213.1 2.72C213.18 2.72 213.36 2.72 213.64 2.72C214 2.68 214.32 2.66 214.6 2.66H220.78C221.34 2.66 221.62 2.84 221.62 3.2C221.62 3.6 221.3 3.8 220.66 3.8C219.18 3.8 218.16 3.9 217.6 4.1C217.08 4.3 216.44 4.78 215.68 5.54C211.96 9.42 208.08 13.72 204.04 18.44C204.72 19.4 206.64 21.9 209.8 25.94C212 28.7 215.14 32.72 219.22 38C221.02 40.4 222.2 41.84 222.76 42.32C223.32 42.76 224.14 42.98 225.22 42.98C226.5 42.98 227.14 43.14 227.14 43.46ZM253.266 40.82C253.266 41.14 252.946 41.58 252.306 42.14C250.586 43.7 248.466 44.48 245.946 44.48C244.306 44.48 243.106 44.14 242.346 43.46C241.626 42.78 241.146 41.56 240.906 39.8C239.106 43.08 236.646 44.72 233.526 44.72C231.806 44.72 230.406 44.18 229.326 43.1C228.286 42.02 227.766 40.62 227.766 38.9C227.766 33.86 232.086 30.88 240.726 29.96V28.7C240.726 24.7 240.586 22.24 240.306 21.32L240.246 21.02C239.686 19.02 238.266 18.02 235.986 18.02C234.666 18.02 233.606 18.4 232.806 19.16C232.006 19.92 231.606 20.66 231.606 21.38C231.606 21.78 232.086 22.02 233.046 22.1C234.486 22.22 235.206 23.1 235.206 24.74C235.206 25.62 234.906 26.36 234.306 26.96C233.746 27.52 233.006 27.8 232.086 27.8C230.926 27.8 229.966 27.46 229.206 26.78C228.486 26.06 228.126 25.16 228.126 24.08C228.126 22.36 228.986 20.8 230.706 19.4C232.426 18 234.686 17.3 237.486 17.3C241.646 17.3 244.546 18.04 246.186 19.52C247.506 20.76 248.166 22.92 248.166 26V36.26C248.166 38.26 248.186 39.42 248.226 39.74C248.426 41.42 249.006 42.26 249.966 42.26C250.646 42.26 251.486 41.78 252.486 40.82C252.686 40.62 252.846 40.52 252.966 40.52C253.166 40.52 253.266 40.62 253.266 40.82ZM240.726 33.68V30.74C236.846 31.5 234.906 33.7 234.906 37.34C234.906 40.14 235.866 41.54 237.786 41.54C238.866 41.54 239.626 40.94 240.066 39.74C240.506 38.54 240.726 36.52 240.726 33.68ZM272.905 40.16C272.905 40.6 272.525 41.18 271.765 41.9C269.805 43.78 267.105 44.72 263.665 44.72C260.505 44.72 258.425 43.94 257.425 42.38C257.025 41.78 256.785 41.22 256.705 40.7C256.665 40.18 256.645 38.84 256.645 36.68V33.8C256.645 33.04 256.645 32.24 256.645 31.4C256.605 30.56 256.585 30.14 256.585 30.14V24.74L256.525 20.42C256.525 19.7 256.425 19.28 256.225 19.16C256.025 19.04 255.425 18.98 254.425 18.98C253.225 18.98 252.625 18.82 252.625 18.5C252.625 18.26 252.845 18.1 253.285 18.02C257.045 17.9 260.285 15.86 263.005 11.9C263.365 11.34 263.645 11.06 263.845 11.06C264.085 11.06 264.205 11.34 264.205 11.9C264.165 15.34 264.305 17.22 264.625 17.54C264.945 17.86 265.925 18.02 267.565 18.02C269.245 18.02 270.425 17.94 271.105 17.78C271.185 17.74 271.265 17.72 271.345 17.72C271.505 17.72 271.585 17.84 271.585 18.08C271.585 18.64 271.325 18.92 270.805 18.92C269.165 18.96 267.345 18.98 265.345 18.98C265.185 18.98 264.905 18.96 264.505 18.92V20.18C264.505 30.9 264.645 37.18 264.925 39.02C265.285 41.34 266.405 42.5 268.285 42.5C269.125 42.5 270.205 41.9 271.525 40.7C272.165 40.14 272.565 39.86 272.725 39.86C272.845 39.86 272.905 39.96 272.905 40.16ZM296.749 36.68C296.749 37.56 296.229 38.72 295.189 40.16C292.949 43.24 290.029 44.78 286.429 44.78C282.389 44.78 279.069 43.5 276.469 40.94C273.869 38.38 272.569 35.1 272.569 31.1C272.569 27.18 273.829 23.92 276.349 21.32C278.869 18.68 282.009 17.36 285.769 17.36C288.329 17.36 290.509 17.92 292.309 19.04C294.309 20.28 295.609 22.06 296.209 24.38C296.369 25.1 296.489 25.96 296.569 26.96C295.649 27.04 291.949 27.1 285.469 27.14C284.469 27.14 283.209 27.18 281.689 27.26C281.569 28.7 281.509 29.92 281.509 30.92C281.509 35.6 282.489 38.92 284.449 40.88C285.609 42.04 287.029 42.62 288.709 42.62C290.109 42.62 291.449 42.14 292.729 41.18C294.049 40.22 295.049 38.98 295.729 37.46C296.049 36.7 296.309 36.32 296.509 36.32C296.669 36.32 296.749 36.44 296.749 36.68ZM289.189 26.24C289.229 23.16 289.009 21.02 288.529 19.82C288.049 18.62 287.209 18.02 286.009 18.02C283.569 18.02 282.169 20.76 281.809 26.24C282.649 26.2 284.409 26.18 287.089 26.18C287.889 26.18 288.589 26.2 289.189 26.24ZM321.135 21.74C321.135 22.9 320.795 23.86 320.115 24.62C319.435 25.34 318.555 25.7 317.475 25.7C315.315 25.7 314.235 24.7 314.235 22.7C314.235 22.02 314.495 21.34 315.015 20.66C315.135 20.5 315.195 20.36 315.195 20.24C315.195 19.88 314.935 19.7 314.415 19.7C313.055 19.7 312.015 20.76 311.295 22.88C310.895 24.08 310.695 27.02 310.695 31.7V36.08L310.755 41.36C310.755 42.44 311.295 43.02 312.375 43.1C313.015 43.14 313.775 43.16 314.655 43.16C315.095 43.2 315.315 43.34 315.315 43.58C315.315 43.9 315.135 44.06 314.775 44.06H313.575C313.215 44.02 311.475 44 308.355 44C308.515 44 307.615 44.02 305.655 44.06L302.715 44.12H300.435C300.035 44.16 299.575 44.18 299.055 44.18C298.615 44.18 298.395 44.04 298.395 43.76C298.395 43.48 298.675 43.34 299.235 43.34C300.875 43.3 301.855 43.14 302.175 42.86C302.535 42.54 302.715 41.64 302.715 40.16L302.655 23.96C302.655 22.6 302.455 21.66 302.055 21.14C301.695 20.62 300.855 20.3 299.535 20.18C298.495 20.1 297.895 20.04 297.735 20C297.615 19.96 297.555 19.82 297.555 19.58C297.555 19.34 297.715 19.22 298.035 19.22C298.395 19.22 298.735 19.24 299.055 19.28H300.255C303.335 19.28 306.655 18.64 310.215 17.36C310.415 18.16 310.515 19.08 310.515 20.12V22.64C311.275 20.68 312.095 19.3 312.975 18.5C313.895 17.7 315.075 17.3 316.515 17.3C317.875 17.3 318.975 17.72 319.815 18.56C320.695 19.4 321.135 20.46 321.135 21.74ZM317.055 3.32C317.055 3.48 316.795 3.8 316.275 4.28C314.435 6.04 312.575 8.76 310.695 12.44C310.135 13.56 309.715 14.12 309.435 14.12C309.235 14.12 309.015 13.9 308.775 13.46C306.295 9.18 303.875 5.76 301.515 3.2H307.095C309.335 5.68 310.755 7.68 311.355 9.2C312.715 7.08 313.815 5.58 314.655 4.7C315.735 3.62 316.415 3.08 316.695 3.08C316.935 3.08 317.055 3.16 317.055 3.32ZM334.6 5.6C334.6 6.72 334.22 7.68 333.46 8.48C332.7 9.28 331.78 9.68 330.7 9.68C329.58 9.68 328.64 9.3 327.88 8.54C327.12 7.78 326.74 6.82 326.74 5.66C326.74 4.54 327.12 3.62 327.88 2.9C328.64 2.18 329.62 1.82 330.82 1.82C331.9 1.82 332.8 2.18 333.52 2.9C334.24 3.62 334.6 4.52 334.6 5.6ZM338.92 43.64C338.92 43.92 338.74 44.06 338.38 44.06L330.4 43.94L324.64 44.06C324.4 44.06 324.1 44.08 323.74 44.12C323.42 44.12 323.24 44.12 323.2 44.12C322.72 44.12 322.48 43.96 322.48 43.64C322.48 43.4 322.94 43.26 323.86 43.22C325.22 43.18 326.02 43.04 326.26 42.8C326.5 42.52 326.62 41.72 326.62 40.4V23.18C326.62 21.66 326.48 20.76 326.2 20.48C325.96 20.16 325.18 20 323.86 20C323.02 20 322.52 19.98 322.36 19.94C322.24 19.9 322.18 19.76 322.18 19.52C322.18 19.24 322.48 19.1 323.08 19.1C327.48 19.06 331.24 18.38 334.36 17.06C334.44 17.54 334.54 18.86 334.66 21.02L334.72 28.64V39.92C334.72 41.56 334.86 42.52 335.14 42.8C335.46 43.08 336.5 43.22 338.26 43.22C338.7 43.22 338.92 43.36 338.92 43.64ZM371.62 43.64C371.62 43.96 371.12 44.12 370.12 44.12C370.04 44.12 369.52 44.1 368.56 44.06C367.6 44.02 366.2 44 364.36 44H362.44L357.28 44.06C356.72 44.06 356.44 43.9 356.44 43.58C356.44 43.3 356.68 43.16 357.16 43.16H357.64C358.68 43.16 359.28 43.04 359.44 42.8C359.64 42.52 359.74 41.62 359.74 40.1V28.52C359.74 24.24 359.46 21.68 358.9 20.84C358.42 20.12 357.56 19.76 356.32 19.76C355.08 19.76 354.06 20.14 353.26 20.9C352.46 21.66 352.06 22.62 352.06 23.78L352.12 41.96C352.2 42.44 352.36 42.76 352.6 42.92C352.88 43.04 353.54 43.12 354.58 43.16C354.9 43.16 355.06 43.28 355.06 43.52C355.06 43.76 354.92 43.9 354.64 43.94C354.36 43.98 353.36 44 351.64 44C349.92 44 348.5 44.02 347.38 44.06C345.18 44.14 342.94 44.18 340.66 44.18C340.18 44.18 339.94 44.04 339.94 43.76C339.94 43.44 340.54 43.28 341.74 43.28C342.98 43.28 343.7 43.04 343.9 42.56L344.08 41.72V27.92C344.08 24.04 344.04 22.02 343.96 21.86C343.84 21.26 343.3 20.96 342.34 20.96C341.82 20.96 341.36 20.98 340.96 21.02H340.3C339.66 21.02 339.34 20.88 339.34 20.6C339.34 20.32 339.58 20.16 340.06 20.12C344.54 19.92 348.12 18.98 350.8 17.3C351.12 17.14 351.34 17.06 351.46 17.06C351.78 17.06 351.94 17.38 351.94 18.02C351.94 19.78 351.92 20.92 351.88 21.44C354 18.68 356.72 17.3 360.04 17.3C363.48 17.3 365.72 18.5 366.76 20.9C367.2 21.9 367.46 23.02 367.54 24.26C367.66 25.5 367.72 28.06 367.72 31.94V40.64C367.72 41.88 367.82 42.62 368.02 42.86C368.22 43.06 368.86 43.16 369.94 43.16C371.06 43.16 371.62 43.32 371.62 43.64ZM399.399 40.82C399.399 41.14 399.079 41.58 398.439 42.14C396.719 43.7 394.599 44.48 392.079 44.48C390.439 44.48 389.239 44.14 388.479 43.46C387.759 42.78 387.279 41.56 387.039 39.8C385.239 43.08 382.779 44.72 379.659 44.72C377.939 44.72 376.539 44.18 375.459 43.1C374.419 42.02 373.899 40.62 373.899 38.9C373.899 33.86 378.219 30.88 386.859 29.96V28.7C386.859 24.7 386.719 22.24 386.439 21.32L386.379 21.02C385.819 19.02 384.399 18.02 382.119 18.02C380.799 18.02 379.739 18.4 378.939 19.16C378.139 19.92 377.739 20.66 377.739 21.38C377.739 21.78 378.219 22.02 379.179 22.1C380.619 22.22 381.339 23.1 381.339 24.74C381.339 25.62 381.039 26.36 380.439 26.96C379.879 27.52 379.139 27.8 378.219 27.8C377.059 27.8 376.099 27.46 375.339 26.78C374.619 26.06 374.259 25.16 374.259 24.08C374.259 22.36 375.119 20.8 376.839 19.4C378.559 18 380.819 17.3 383.619 17.3C387.779 17.3 390.679 18.04 392.319 19.52C393.639 20.76 394.299 22.92 394.299 26V36.26C394.299 38.26 394.319 39.42 394.359 39.74C394.559 41.42 395.139 42.26 396.099 42.26C396.779 42.26 397.619 41.78 398.619 40.82C398.819 40.62 398.979 40.52 399.099 40.52C399.299 40.52 399.399 40.62 399.399 40.82ZM386.859 33.68V30.74C382.979 31.5 381.039 33.7 381.039 37.34C381.039 40.14 381.999 41.54 383.919 41.54C384.999 41.54 385.759 40.94 386.199 39.74C386.639 38.54 386.859 36.52 386.859 33.68ZM222.76 89.66C222.76 91.9 221.3 93.02 218.38 93.02C214.7 93.02 211.76 91.86 209.56 89.54C207.84 87.74 206.86 85.82 206.62 83.78L206.02 78.86C205.62 75.74 204.88 73.56 203.8 72.32C202.76 71.08 201.06 70.48 198.7 70.52V84.14C198.7 87.3 198.72 89 198.76 89.24C198.76 89.92 199.04 90.4 199.6 90.68C200.16 90.92 201.22 91.04 202.78 91.04C203.74 91.04 204.22 91.22 204.22 91.58C204.22 91.9 203.98 92.06 203.5 92.06L197.68 92C197.68 92 197.36 92 196.72 92C196 92.04 195.32 92.06 194.68 92.06H190.36C189.96 92.06 189.5 92.04 188.98 92C188.54 92 188.26 92 188.14 92L185.38 92.06C184.82 92.06 184.54 91.9 184.54 91.58C184.54 91.22 185.36 91 187 90.92C188.36 90.84 189.16 90.52 189.4 89.96C189.52 89.68 189.58 88.84 189.58 87.44V56.54C189.58 54.46 189.54 53.24 189.46 52.88C189.38 52.48 189.12 52.18 188.68 51.98C188.12 51.74 187.22 51.62 185.98 51.62C185.1 51.62 184.66 51.44 184.66 51.08C184.66 50.8 184.84 50.64 185.2 50.6C185.56 50.52 186.52 50.48 188.08 50.48C188.08 50.48 188.44 50.48 189.16 50.48C189.88 50.52 190.58 50.54 191.26 50.54H193.24C193.28 50.54 193.7 50.52 194.5 50.48C195.26 50.48 195.98 50.48 196.66 50.48H200.14C205.74 50.48 209.56 50.92 211.6 51.8C213.2 52.48 214.48 53.52 215.44 54.92C216.4 56.32 216.88 57.86 216.88 59.54C216.88 63.38 214.88 66.22 210.88 68.06C209.12 68.86 206.52 69.46 203.08 69.86L203.02 70.22C207.38 70.5 210.54 71.66 212.5 73.7C214.46 75.7 215.64 78.96 216.04 83.48C216.36 87.08 216.86 89.34 217.54 90.26C218.22 91.14 218.92 91.58 219.64 91.58C220.24 91.58 220.54 91.42 220.54 91.1C220.54 90.94 220.3 90.72 219.82 90.44C219.38 90.16 219.16 89.76 219.16 89.24C219.16 88.16 219.76 87.62 220.96 87.62C222.16 87.62 222.76 88.3 222.76 89.66ZM207.58 59.36C207.58 54.2 205.54 51.62 201.46 51.62C200.14 51.62 199.32 52.06 199 52.94C198.8 53.5 198.7 55.68 198.7 59.48V69.44C201.82 69.48 204.08 68.7 205.48 67.1C206.88 65.5 207.58 62.92 207.58 59.36ZM235.283 53.6C235.283 54.72 234.903 55.68 234.143 56.48C233.383 57.28 232.463 57.68 231.383 57.68C230.263 57.68 229.323 57.3 228.563 56.54C227.803 55.78 227.423 54.82 227.423 53.66C227.423 52.54 227.803 51.62 228.563 50.9C229.323 50.18 230.303 49.82 231.503 49.82C232.583 49.82 233.483 50.18 234.203 50.9C234.923 51.62 235.283 52.52 235.283 53.6ZM239.603 91.64C239.603 91.92 239.423 92.06 239.063 92.06L231.083 91.94L225.323 92.06C225.083 92.06 224.783 92.08 224.423 92.12C224.103 92.12 223.923 92.12 223.883 92.12C223.403 92.12 223.163 91.96 223.163 91.64C223.163 91.4 223.623 91.26 224.543 91.22C225.903 91.18 226.703 91.04 226.943 90.8C227.183 90.52 227.303 89.72 227.303 88.4V71.18C227.303 69.66 227.163 68.76 226.883 68.48C226.643 68.16 225.863 68 224.543 68C223.703 68 223.203 67.98 223.043 67.94C222.923 67.9 222.863 67.76 222.863 67.52C222.863 67.24 223.163 67.1 223.763 67.1C228.163 67.06 231.923 66.38 235.043 65.06C235.123 65.54 235.223 66.86 235.343 69.02L235.403 76.64V87.92C235.403 89.56 235.543 90.52 235.823 90.8C236.143 91.08 237.183 91.22 238.943 91.22C239.383 91.22 239.603 91.36 239.603 91.64ZM264.024 71.48C264.024 72.44 263.744 73.22 263.184 73.82C262.624 74.42 261.904 74.72 261.024 74.72C258.904 74.72 257.844 73.78 257.844 71.9C257.844 71.42 257.964 70.86 258.204 70.22C258.484 69.54 258.624 69.06 258.624 68.78C258.624 68.02 258.324 67.38 257.724 66.86C257.164 66.3 256.464 66.02 255.624 66.02C251.984 66.02 250.164 70.08 250.164 78.2C250.164 82.84 250.964 86.16 252.564 88.16C253.804 89.68 255.324 90.44 257.124 90.44C259.004 90.44 260.924 89.22 262.884 86.78C263.124 86.46 263.344 86.3 263.544 86.3C263.704 86.3 263.784 86.42 263.784 86.66C263.784 87.42 263.064 88.48 261.624 89.84C259.544 91.8 257.044 92.78 254.124 92.78C250.524 92.78 247.444 91.5 244.884 88.94C242.364 86.34 241.104 83.2 241.104 79.52C241.104 75.52 242.444 72.16 245.124 69.44C247.804 66.68 251.104 65.3 255.024 65.3C257.544 65.3 259.664 65.9 261.384 67.1C263.144 68.3 264.024 69.76 264.024 71.48ZM296.078 91.82C296.078 92.06 295.898 92.18 295.538 92.18C295.578 92.18 295.178 92.18 294.338 92.18C293.498 92.14 292.798 92.12 292.238 92.12H290.738C287.298 92.12 285.178 92.08 284.378 92H283.418L281.978 92.06C281.458 92.1 281.198 91.96 281.198 91.64C281.198 91.4 281.298 91.28 281.498 91.28L282.878 91.34C283.758 91.38 284.258 91.14 284.378 90.62C284.458 90.3 284.498 88.3 284.498 84.62V75.68C284.498 71.96 284.318 69.76 283.958 69.08C283.438 68.04 282.438 67.52 280.958 67.52C279.398 67.52 278.198 68.22 277.358 69.62C276.958 70.3 276.758 71.76 276.758 74V83.42C276.758 86.34 276.778 87.94 276.818 88.22V88.94L276.758 90.38C276.718 90.98 277.558 91.28 279.278 91.28C279.638 91.28 279.818 91.4 279.818 91.64C279.818 91.92 279.558 92.06 279.038 92.06C279.038 92.06 278.878 92.06 278.558 92.06C278.238 92.02 277.758 92 277.118 92H274.478L271.118 92.06L267.578 92.18H265.778C265.178 92.18 264.878 92.06 264.878 91.82C264.878 91.7 264.918 91.62 264.998 91.58C265.078 91.54 265.258 91.52 265.538 91.52C267.058 91.52 267.958 91.46 268.238 91.34C268.518 91.22 268.698 90.76 268.778 89.96C268.818 89.48 268.838 87.08 268.838 82.76V60.74C268.838 56.42 268.738 53.94 268.538 53.3C268.378 52.62 267.538 52.28 266.018 52.28C264.858 52.28 264.278 52.16 264.278 51.92C264.278 51.68 264.958 51.52 266.318 51.44C269.398 51.24 272.298 50.72 275.018 49.88C275.538 49.72 275.918 49.64 276.158 49.64C276.478 49.64 276.638 50.76 276.638 53V54.2C276.638 55 276.638 56.06 276.638 57.38C276.598 58.66 276.578 59.54 276.578 60.02V69.56C277.738 67.92 278.858 66.8 279.938 66.2C281.058 65.6 282.558 65.3 284.438 65.3C288.398 65.3 290.878 66.9 291.878 70.1C292.238 71.14 292.418 72.82 292.418 75.14V89.12C292.418 90.16 292.578 90.8 292.898 91.04C293.258 91.28 294.118 91.4 295.478 91.4C295.878 91.4 296.078 91.54 296.078 91.82ZM317.026 88.16C317.026 88.6 316.646 89.18 315.886 89.9C313.926 91.78 311.226 92.72 307.786 92.72C304.626 92.72 302.546 91.94 301.546 90.38C301.146 89.78 300.906 89.22 300.826 88.7C300.786 88.18 300.766 86.84 300.766 84.68V81.8C300.766 81.04 300.766 80.24 300.766 79.4C300.726 78.56 300.706 78.14 300.706 78.14V72.74L300.646 68.42C300.646 67.7 300.546 67.28 300.346 67.16C300.146 67.04 299.546 66.98 298.546 66.98C297.346 66.98 296.746 66.82 296.746 66.5C296.746 66.26 296.966 66.1 297.406 66.02C301.166 65.9 304.406 63.86 307.126 59.9C307.486 59.34 307.766 59.06 307.966 59.06C308.206 59.06 308.326 59.34 308.326 59.9C308.286 63.34 308.426 65.22 308.746 65.54C309.066 65.86 310.046 66.02 311.686 66.02C313.366 66.02 314.546 65.94 315.226 65.78C315.306 65.74 315.386 65.72 315.466 65.72C315.626 65.72 315.706 65.84 315.706 66.08C315.706 66.64 315.446 66.92 314.926 66.92C313.286 66.96 311.466 66.98 309.466 66.98C309.306 66.98 309.026 66.96 308.626 66.92V68.18C308.626 78.9 308.766 85.18 309.046 87.02C309.406 89.34 310.526 90.5 312.406 90.5C313.246 90.5 314.326 89.9 315.646 88.7C316.286 88.14 316.686 87.86 316.846 87.86C316.966 87.86 317.026 87.96 317.026 88.16ZM340.87 84.68C340.87 85.56 340.35 86.72 339.31 88.16C337.07 91.24 334.15 92.78 330.55 92.78C326.51 92.78 323.19 91.5 320.59 88.94C317.99 86.38 316.69 83.1 316.69 79.1C316.69 75.18 317.95 71.92 320.47 69.32C322.99 66.68 326.13 65.36 329.89 65.36C332.45 65.36 334.63 65.92 336.43 67.04C338.43 68.28 339.73 70.06 340.33 72.38C340.49 73.1 340.61 73.96 340.69 74.96C339.77 75.04 336.07 75.1 329.59 75.14C328.59 75.14 327.33 75.18 325.81 75.26C325.69 76.7 325.63 77.92 325.63 78.92C325.63 83.6 326.61 86.92 328.57 88.88C329.73 90.04 331.15 90.62 332.83 90.62C334.23 90.62 335.57 90.14 336.85 89.18C338.17 88.22 339.17 86.98 339.85 85.46C340.17 84.7 340.43 84.32 340.63 84.32C340.79 84.32 340.87 84.44 340.87 84.68ZM333.31 74.24C333.35 71.16 333.13 69.02 332.65 67.82C332.17 66.62 331.33 66.02 330.13 66.02C327.69 66.02 326.29 68.76 325.93 74.24C326.77 74.2 328.53 74.18 331.21 74.18C332.01 74.18 332.71 74.2 333.31 74.24ZM365.256 69.74C365.256 70.9 364.916 71.86 364.236 72.62C363.556 73.34 362.676 73.7 361.596 73.7C359.436 73.7 358.356 72.7 358.356 70.7C358.356 70.02 358.616 69.34 359.136 68.66C359.256 68.5 359.316 68.36 359.316 68.24C359.316 67.88 359.056 67.7 358.536 67.7C357.176 67.7 356.136 68.76 355.416 70.88C355.016 72.08 354.816 75.02 354.816 79.7V84.08L354.876 89.36C354.876 90.44 355.416 91.02 356.496 91.1C357.136 91.14 357.896 91.16 358.776 91.16C359.216 91.2 359.436 91.34 359.436 91.58C359.436 91.9 359.256 92.06 358.896 92.06H357.696C357.336 92.02 355.596 92 352.476 92C352.636 92 351.736 92.02 349.776 92.06L346.836 92.12H344.556C344.156 92.16 343.696 92.18 343.176 92.18C342.736 92.18 342.516 92.04 342.516 91.76C342.516 91.48 342.796 91.34 343.356 91.34C344.996 91.3 345.976 91.14 346.296 90.86C346.656 90.54 346.836 89.64 346.836 88.16L346.776 71.96C346.776 70.6 346.576 69.66 346.176 69.14C345.816 68.62 344.976 68.3 343.656 68.18C342.616 68.1 342.016 68.04 341.856 68C341.736 67.96 341.676 67.82 341.676 67.58C341.676 67.34 341.836 67.22 342.156 67.22C342.516 67.22 342.856 67.24 343.176 67.28H344.376C347.456 67.28 350.776 66.64 354.336 65.36C354.536 66.16 354.636 67.08 354.636 68.12V70.64C355.396 68.68 356.216 67.3 357.096 66.5C358.016 65.7 359.196 65.3 360.636 65.3C361.996 65.3 363.096 65.72 363.936 66.56C364.816 67.4 365.256 68.46 365.256 69.74ZM394.681 79.28C394.681 83.56 393.001 87.02 389.641 89.66C387.001 91.74 384.101 92.78 380.941 92.78C377.181 92.78 373.921 91.44 371.161 88.76C368.441 86.04 367.081 82.84 367.081 79.16C367.081 75.32 368.441 72.06 371.161 69.38C373.921 66.66 377.241 65.3 381.121 65.3C384.841 65.3 388.021 66.68 390.661 69.44C393.341 72.16 394.681 75.44 394.681 79.28ZM385.621 79.34C385.621 74.38 385.281 70.98 384.601 69.14C383.841 67.1 382.621 66.08 380.941 66.08C379.381 66.08 378.161 67.16 377.281 69.32C376.401 71.44 375.961 74.38 375.961 78.14C375.961 83.38 376.481 87.1 377.521 89.3C378.361 91.06 379.541 91.94 381.061 91.94C382.941 91.94 384.181 90.82 384.781 88.58C385.341 86.46 385.621 83.38 385.621 79.34ZM422.749 66.38C422.749 66.62 422.269 66.76 421.309 66.8C420.229 66.84 419.469 67.08 419.029 67.52C418.629 67.96 418.089 69.1 417.409 70.94C416.729 72.9 415.889 75.32 414.889 78.2L409.969 91.46C409.649 92.38 409.289 92.84 408.889 92.84C408.529 92.84 407.949 91.96 407.149 90.2C406.389 88.44 403.769 82.1 399.289 71.18C398.449 69.14 397.949 67.98 397.789 67.7C397.429 67.18 396.529 66.92 395.089 66.92C394.449 66.92 394.129 66.76 394.129 66.44C394.129 66.12 394.349 65.96 394.789 65.96C395.149 65.96 395.469 65.98 395.749 66.02C396.389 66.18 398.609 66.22 402.409 66.14L408.409 66.02C408.649 65.98 408.969 65.96 409.369 65.96C409.809 65.96 410.029 66.1 410.029 66.38C410.029 66.58 409.149 66.74 407.389 66.86C406.909 66.9 406.669 67.14 406.669 67.58C406.669 68.06 407.329 70.12 408.649 73.76C409.969 77.36 411.149 80.38 412.189 82.82C415.589 73.74 417.289 68.74 417.289 67.82C417.289 67.1 416.529 66.76 415.009 66.8C413.969 66.84 413.449 66.7 413.449 66.38C413.449 66.14 413.609 66.02 413.929 66.02H416.629C417.149 66.02 417.689 66.02 418.249 66.02C418.849 66.06 419.189 66.08 419.269 66.08C419.589 66.08 420.069 66.06 420.709 66.02C421.389 65.98 421.889 65.96 422.209 65.96C422.569 65.96 422.749 66.1 422.749 66.38ZM444.296 52.46L443.756 52.94L441.416 55.04L434.816 60.92C434.056 61.64 433.576 62 433.376 62C433.216 62 433.136 61.92 433.136 61.76C433.136 61.64 433.776 59.98 435.056 56.78L435.116 56.6C435.556 55.48 436.076 54.1 436.676 52.46H444.296ZM448.676 88.82C448.676 89.14 448.356 89.58 447.716 90.14C445.996 91.7 443.876 92.48 441.356 92.48C439.716 92.48 438.516 92.14 437.756 91.46C437.036 90.78 436.556 89.56 436.316 87.8C434.516 91.08 432.056 92.72 428.936 92.72C427.216 92.72 425.816 92.18 424.736 91.1C423.696 90.02 423.176 88.62 423.176 86.9C423.176 81.86 427.496 78.88 436.136 77.96V76.7C436.136 72.7 435.996 70.24 435.716 69.32L435.656 69.02C435.096 67.02 433.676 66.02 431.396 66.02C430.076 66.02 429.016 66.4 428.216 67.16C427.416 67.92 427.016 68.66 427.016 69.38C427.016 69.78 427.496 70.02 428.456 70.1C429.896 70.22 430.616 71.1 430.616 72.74C430.616 73.62 430.316 74.36 429.716 74.96C429.156 75.52 428.416 75.8 427.496 75.8C426.336 75.8 425.376 75.46 424.616 74.78C423.896 74.06 423.536 73.16 423.536 72.08C423.536 70.36 424.396 68.8 426.116 67.4C427.836 66 430.096 65.3 432.896 65.3C437.056 65.3 439.956 66.04 441.596 67.52C442.916 68.76 443.576 70.92 443.576 74V84.26C443.576 86.26 443.596 87.42 443.636 87.74C443.836 89.42 444.416 90.26 445.376 90.26C446.056 90.26 446.896 89.78 447.896 88.82C448.096 88.62 448.256 88.52 448.376 88.52C448.576 88.52 448.676 88.62 448.676 88.82ZM436.136 81.68V78.74C432.256 79.5 430.316 81.7 430.316 85.34C430.316 88.14 431.276 89.54 433.196 89.54C434.276 89.54 435.036 88.94 435.476 87.74C435.916 86.54 436.136 84.52 436.136 81.68Z" fill="#DD4D1F"/>
</svg>
