<svg width="118" height="67" viewBox="0 0 118 67" fill="none" xmlns="http://www.w3.org/2000/svg">
<path d="M117.798 60.4512C117.798 61.0251 116.736 61.312 114.613 61.312C112.776 61.312 110.108 61.2833 106.607 61.226C104.025 61.1686 102.246 61.1686 101.27 61.226L96.4495 61.3981L92.5758 61.4842C91.3133 61.4842 90.682 61.226 90.682 60.7095C90.682 60.3078 90.8255 60.0782 91.1124 60.0208C91.4568 59.9634 92.4897 59.906 94.2114 59.8487C95.1296 59.8487 95.5887 59.5617 95.5887 58.9878C95.5887 58.7583 94.0105 56.4341 90.8542 52.0153L78.2003 34.2826C77.4542 33.5365 76.9091 32.934 76.5647 32.4749V54.3395C76.5647 56.9219 76.7656 58.4714 77.1673 58.9878C77.6264 59.4469 79.0898 59.7339 81.5574 59.8487C82.9921 59.906 83.7095 60.193 83.7095 60.7095C83.7095 61.226 83.193 61.4842 82.16 61.4842L76.7369 61.3981C73.1215 61.3407 69.42 61.312 65.6324 61.312C65.0586 61.312 64.1691 61.3407 62.9639 61.3981C61.8162 61.4555 60.5823 61.4842 59.2624 61.4842H58.1434C57.2252 61.4842 56.7661 61.226 56.7661 60.7095C56.7661 60.193 57.713 59.906 59.6068 59.8487C61.5579 59.7913 62.7344 59.533 63.1361 59.0739C63.5952 58.6148 63.8247 57.3523 63.8247 55.2864V5.61757C63.8247 4.81415 63.6239 4.26897 63.2222 3.98203C62.6483 3.63771 61.4145 3.46554 59.5207 3.46554C57.8564 3.46554 57.0243 3.2073 57.0243 2.69081C57.0243 2.23171 57.426 2.00216 58.2295 2.00216L68.6453 2.17432C68.76 2.17432 69.1044 2.17432 69.6782 2.17432C70.3095 2.11694 70.8834 2.08824 71.3999 2.08824L76.7369 2.00216H80.2662C80.8975 1.94478 81.5861 1.91608 82.3322 1.91608C83.0208 1.91608 83.3651 2.17433 83.3651 2.69081C83.3651 3.09252 82.6765 3.32207 81.2992 3.37946C79.0037 3.49424 77.6264 3.72379 77.1673 4.06811C76.7656 4.35505 76.5647 5.35933 76.5647 7.08095V29.8064C78.1142 28.5438 83.3364 22.8912 92.2315 12.8484C96.1912 8.37216 98.1711 5.53149 98.1711 4.32635C98.1711 3.92464 97.9128 3.69509 97.3964 3.6377C96.8799 3.52293 95.4165 3.46554 93.0062 3.46554C92.2028 3.46554 91.8011 3.2073 91.8011 2.69081C91.8011 2.11694 92.4897 1.85869 93.867 1.91608L97.6546 2.00216C97.7694 2.00216 98.0276 2.00216 98.4293 2.00216C98.9458 1.94478 99.4049 1.91608 99.8066 1.91608H108.673C109.476 1.91608 109.878 2.17433 109.878 2.69081C109.878 3.26469 109.419 3.55162 108.501 3.55162C106.377 3.55162 104.914 3.69509 104.111 3.98203C103.365 4.26897 102.446 4.95761 101.356 6.04797C96.0191 11.6146 90.4525 17.7837 84.6564 24.5554C85.6319 25.9327 88.3865 29.5194 92.9201 35.3155C96.0764 39.2753 100.581 45.0427 106.435 52.6178C109.017 56.0611 110.71 58.127 111.514 58.8157C112.317 59.4469 113.494 59.7626 115.043 59.7626C116.879 59.7626 117.798 59.9921 117.798 60.4512Z" fill="black"/>
<path d="M0.29689 57.8688C0.29689 61.0825 2.39153 62.6893 6.58081 62.6893C11.8604 62.6893 16.0784 61.0251 19.2347 57.6966C21.7024 55.1142 23.1084 52.3596 23.4527 49.4328L24.3135 42.3742C24.8874 37.898 25.9491 34.7704 27.4985 32.9914C28.9906 31.2123 31.4296 30.3515 34.8154 30.4089V49.9493C34.8154 54.4829 34.7867 56.9219 34.7293 57.2662C34.7293 58.2418 34.3276 58.9305 33.5242 59.3322C32.7208 59.6765 31.2 59.8487 28.9619 59.8487C27.5846 59.8487 26.8959 60.1069 26.8959 60.6234C26.8959 61.0825 27.2403 61.312 27.9289 61.312L36.2788 61.226C36.2788 61.226 36.7379 61.226 37.6561 61.226C38.6891 61.2833 39.6646 61.312 40.5828 61.312H46.7807C47.3546 61.312 48.0145 61.2833 48.7605 61.226C49.3918 61.226 49.7935 61.226 49.9657 61.226L53.9254 61.312C54.7288 61.312 55.1305 61.0825 55.1305 60.6234C55.1305 60.1069 53.9541 59.7913 51.6012 59.6765C49.65 59.5617 48.5023 59.1026 48.158 58.2992C47.9858 57.8975 47.8997 56.6923 47.8997 54.6838V10.352C47.8997 7.36789 47.9571 5.61757 48.0719 5.10108C48.1867 4.52721 48.5597 4.0968 49.1909 3.80986C49.9944 3.46554 51.2856 3.29338 53.0646 3.29338C54.3271 3.29338 54.9584 3.03514 54.9584 2.51865C54.9584 2.11694 54.7001 1.88739 54.1837 1.83C53.6672 1.71523 52.2899 1.65784 50.0518 1.65784C50.0518 1.65784 49.5353 1.65784 48.5023 1.65784C47.4693 1.71523 46.465 1.74392 45.4895 1.74392H42.6488C42.5914 1.74392 41.9888 1.71523 40.8411 1.65784C39.7507 1.65784 38.7177 1.65784 37.7422 1.65784H32.7495C24.7152 1.65784 19.2347 2.2891 16.308 3.55162C14.0125 4.52721 12.1761 6.01928 10.7988 8.02784C9.42148 10.0364 8.73284 12.2458 8.73284 14.6561C8.73284 20.1653 11.6022 24.2398 17.3409 26.8796C19.866 28.0273 23.5962 28.8882 28.5315 29.462L28.6176 29.9785C22.3623 30.3802 17.8287 32.0445 15.0168 34.9712C12.2048 37.8406 10.5118 42.5177 9.93797 49.0024C9.47887 54.1673 8.76153 57.4097 7.78595 58.7296C6.81036 59.9921 5.80608 60.6234 4.77311 60.6234C3.9123 60.6234 3.48189 60.3938 3.48189 59.9347C3.48189 59.7052 3.82622 59.3896 4.51487 58.9878C5.14613 58.5861 5.46176 58.0123 5.46176 57.2662C5.46176 55.7168 4.60094 54.942 2.87932 54.942C1.1577 54.942 0.29689 55.9176 0.29689 57.8688ZM22.0754 14.3978C22.0754 6.99487 25.0022 3.29338 30.8557 3.29338C32.7495 3.29338 33.9259 3.92464 34.385 5.18716C34.6719 5.99059 34.8154 9.1182 34.8154 14.57V28.8595C30.3392 28.9168 27.0968 27.7978 25.0882 25.5023C23.0797 23.2068 22.0754 19.5053 22.0754 14.3978Z" fill="black"/>
</svg>
